<svg width="377" height="269" viewBox="0 0 377 269" fill="none" xmlns="http://www.w3.org/2000/svg">
<line y1="53.7849" x2="376.727" y2="53.7849" stroke="#747070"/>
<line y1="107.603" x2="376.727" y2="107.603" stroke="#747070"/>
<line y1="161.421" x2="376.727" y2="161.421" stroke="#747070"/>
<line y1="215.239" x2="376.727" y2="215.239" stroke="#747070"/>
<line x1="54.5" y1="10.5818" x2="54.5" y2="260.582" stroke="#747070"/>
<line x1="108.318" y1="10.5818" x2="108.318" y2="260.582" stroke="#747070"/>
<line x1="162.136" y1="10.5818" x2="162.136" y2="260.582" stroke="#747070"/>
<line x1="215.955" y1="10.5818" x2="215.955" y2="260.582" stroke="#747070"/>
<line x1="269.773" y1="10.5818" x2="269.773" y2="260.582" stroke="#747070"/>
<line x1="323.591" y1="10.5818" x2="323.591" y2="260.582" stroke="#747070"/>
<path d="M188.387 24.616H185.475V23.944C185.901 23.912 186.285 23.8693 186.627 23.816C186.979 23.7627 187.283 23.6613 187.539 23.512C187.805 23.3627 188.024 23.1493 188.195 22.872C188.376 22.584 188.509 22.2 188.595 21.72H189.411V33H188.387V24.616Z" fill="black"/>
<path d="M237.659 25.416C237.659 24.8613 237.744 24.36 237.915 23.912C238.085 23.4533 238.331 23.064 238.651 22.744C238.971 22.4133 239.355 22.1627 239.803 21.992C240.261 21.8107 240.768 21.72 241.323 21.72C241.888 21.72 242.384 21.8053 242.811 21.976C243.248 22.136 243.611 22.3547 243.899 22.632C244.197 22.9093 244.421 23.24 244.571 23.624C244.72 24.008 244.795 24.4133 244.795 24.84C244.795 25.3413 244.709 25.784 244.539 26.168C244.379 26.552 244.16 26.8933 243.883 27.192C243.616 27.4907 243.307 27.7573 242.955 27.992C242.613 28.2267 242.261 28.4507 241.899 28.664C241.536 28.8667 241.179 29.064 240.827 29.256C240.475 29.448 240.16 29.6507 239.883 29.864C239.701 30.0027 239.525 30.152 239.355 30.312C239.184 30.4613 239.029 30.6267 238.891 30.808C238.752 30.9893 238.64 31.192 238.555 31.416C238.469 31.6293 238.421 31.8693 238.411 32.136H244.699V33H237.323C237.333 32.456 237.392 31.9653 237.499 31.528C237.605 31.0907 237.84 30.664 238.203 30.248C238.597 29.8 239.003 29.416 239.419 29.096C239.845 28.776 240.261 28.4933 240.667 28.248C241.072 27.992 241.456 27.7627 241.819 27.56C242.181 27.3467 242.501 27.1173 242.779 26.872C243.056 26.6267 243.275 26.3493 243.435 26.04C243.595 25.7307 243.675 25.352 243.675 24.904C243.675 24.5413 243.611 24.216 243.483 23.928C243.355 23.64 243.179 23.3947 242.955 23.192C242.731 22.9893 242.469 22.84 242.171 22.744C241.872 22.6373 241.547 22.584 241.195 22.584C240.821 22.584 240.48 22.664 240.171 22.824C239.872 22.9733 239.611 23.176 239.387 23.432C239.173 23.688 239.008 23.9867 238.891 24.328C238.773 24.6693 238.725 25.032 238.747 25.416H237.659Z" fill="black"/>
<path d="M296.703 33.3047C295.38 33.3047 294.419 32.9427 293.82 32.2188C293.227 31.4896 292.93 30.6042 292.93 29.5625H294.398C294.461 30.2865 294.596 30.8125 294.805 31.1406C295.169 31.7292 295.828 32.0234 296.781 32.0234C297.521 32.0234 298.115 31.8255 298.562 31.4297C299.01 31.0339 299.234 30.5234 299.234 29.8984C299.234 29.1276 298.997 28.5885 298.523 28.2812C298.055 27.974 297.401 27.8203 296.562 27.8203C296.469 27.8203 296.372 27.8229 296.273 27.8281C296.18 27.8281 296.083 27.8307 295.984 27.8359V26.5938C296.13 26.6094 296.253 26.6198 296.352 26.625C296.451 26.6302 296.557 26.6328 296.672 26.6328C297.198 26.6328 297.63 26.5495 297.969 26.3828C298.562 26.0911 298.859 25.5703 298.859 24.8203C298.859 24.263 298.661 23.8333 298.266 23.5312C297.87 23.2292 297.409 23.0781 296.883 23.0781C295.945 23.0781 295.297 23.3906 294.938 24.0156C294.74 24.3594 294.628 24.849 294.602 25.4844H293.211C293.211 24.651 293.378 23.9427 293.711 23.3594C294.284 22.3177 295.292 21.7969 296.734 21.7969C297.875 21.7969 298.758 22.0521 299.383 22.5625C300.008 23.0677 300.32 23.8021 300.32 24.7656C300.32 25.4531 300.135 26.0104 299.766 26.4375C299.536 26.7031 299.24 26.9115 298.875 27.0625C299.464 27.224 299.922 27.5365 300.25 28C300.583 28.4583 300.75 29.0208 300.75 29.6875C300.75 30.7552 300.398 31.625 299.695 32.2969C298.992 32.9688 297.995 33.3047 296.703 33.3047Z" fill="black"/>
<path d="M26.3872 83.1205C26.4938 83.8885 26.7978 84.4645 27.2992 84.8485C27.8112 85.2218 28.4352 85.4085 29.1712 85.4085C29.5872 85.4085 29.9605 85.3338 30.2912 85.1845C30.6325 85.0352 30.9205 84.8325 31.1552 84.5765C31.3898 84.3098 31.5658 84.0058 31.6832 83.6645C31.8112 83.3125 31.8752 82.9338 31.8752 82.5285C31.8752 82.1125 31.8058 81.7285 31.6672 81.3765C31.5392 81.0245 31.3525 80.7205 31.1072 80.4645C30.8725 80.2085 30.5792 80.0112 30.2272 79.8725C29.8858 79.7338 29.5018 79.6645 29.0752 79.6645C28.5632 79.6645 28.1045 79.7605 27.6992 79.9525C27.2938 80.1338 26.9365 80.4272 26.6272 80.8325L25.7792 80.7205L26.6912 74.8805H32.2912V75.7445H27.5552L26.8512 79.5365C27.0752 79.3978 27.2778 79.2805 27.4592 79.1845C27.6512 79.0885 27.8432 79.0138 28.0352 78.9605C28.2272 78.8965 28.4245 78.8538 28.6272 78.8325C28.8405 78.8112 29.0752 78.8005 29.3312 78.8005C29.8432 78.8005 30.3178 78.8858 30.7552 79.0565C31.1925 79.2272 31.5712 79.4725 31.8912 79.7925C32.2112 80.1125 32.4565 80.5072 32.6272 80.9765C32.8085 81.4352 32.8992 81.9525 32.8992 82.5285C32.8992 83.1258 32.7978 83.6592 32.5952 84.1285C32.4032 84.5872 32.1418 84.9765 31.8112 85.2965C31.4805 85.6165 31.0965 85.8618 30.6592 86.0325C30.2325 86.1925 29.7898 86.2725 29.3312 86.2725C28.7978 86.2725 28.2965 86.2192 27.8272 86.1125C27.3685 86.0058 26.9632 85.8298 26.6112 85.5845C26.2592 85.3285 25.9712 85.0032 25.7472 84.6085C25.5338 84.2032 25.4058 83.7072 25.3632 83.1205H26.3872Z" fill="black"/>
<path d="M76.6502 132.483H73.7382V131.811C74.1648 131.779 74.5488 131.736 74.8902 131.683C75.2422 131.629 75.5462 131.528 75.8022 131.379C76.0688 131.229 76.2875 131.016 76.4582 130.739C76.6395 130.451 76.7728 130.067 76.8582 129.587H77.6742V140.867H76.6502V132.483ZM84.2448 134.595C84.7248 134.595 85.1621 134.568 85.5568 134.515C85.9515 134.451 86.2875 134.339 86.5648 134.179C86.8528 134.008 87.0768 133.784 87.2368 133.507C87.3968 133.229 87.4768 132.872 87.4768 132.435C87.4768 132.083 87.4128 131.784 87.2848 131.539C87.1568 131.283 86.9808 131.075 86.7568 130.915C86.5435 130.755 86.2875 130.637 85.9888 130.563C85.7008 130.488 85.3968 130.451 85.0768 130.451C84.7141 130.451 84.3835 130.509 84.0848 130.627C83.7968 130.744 83.5461 130.915 83.3328 131.139C83.1195 131.352 82.9541 131.608 82.8368 131.907C82.7195 132.195 82.6608 132.515 82.6608 132.867H81.6368C81.6368 132.355 81.7221 131.896 81.8928 131.491C82.0741 131.075 82.3515 130.691 82.7248 130.339C83.0768 130.019 83.4715 129.816 83.9088 129.731C84.3568 129.635 84.8155 129.587 85.2848 129.587C85.7328 129.587 86.1488 129.645 86.5328 129.763C86.9275 129.869 87.2688 130.04 87.5568 130.275C87.8448 130.499 88.0741 130.787 88.2448 131.139C88.4155 131.491 88.5008 131.901 88.5008 132.371C88.5008 132.957 88.3675 133.464 88.1008 133.891C87.8448 134.317 87.4448 134.648 86.9008 134.883C87.3061 135.011 87.6368 135.181 87.8928 135.395C88.1595 135.597 88.3675 135.827 88.5168 136.083C88.6661 136.328 88.7675 136.589 88.8208 136.867C88.8741 137.144 88.9008 137.411 88.9008 137.667C88.9008 138.136 88.8208 138.573 88.6608 138.979C88.5008 139.384 88.2661 139.741 87.9568 140.051C87.6475 140.36 87.2635 140.611 86.8048 140.803C86.3568 140.984 85.8448 141.08 85.2688 141.091C84.6181 141.091 84.0528 141.032 83.5728 140.915C83.0928 140.797 82.6928 140.605 82.3728 140.339C82.0528 140.061 81.8021 139.704 81.6208 139.267C81.4395 138.819 81.3168 138.264 81.2528 137.603H82.2768C82.2768 138.467 82.5328 139.123 83.0448 139.571C83.5675 140.008 84.2448 140.227 85.0768 140.227C85.4821 140.227 85.8608 140.157 86.2128 140.019C86.5648 139.88 86.8635 139.693 87.1088 139.459C87.3648 139.224 87.5568 138.952 87.6848 138.643C87.8235 138.333 87.8875 138.013 87.8768 137.683C87.8555 137.224 87.7488 136.845 87.5568 136.547C87.3648 136.237 87.1035 135.997 86.7728 135.827C86.4528 135.645 86.0741 135.528 85.6368 135.475C85.1995 135.411 84.7355 135.395 84.2448 135.427V134.595Z" fill="black"/>
<path d="M126.74 186.416C126.74 185.861 126.826 185.36 126.996 184.912C127.167 184.453 127.412 184.064 127.732 183.744C128.052 183.413 128.436 183.163 128.884 182.992C129.343 182.811 129.85 182.72 130.404 182.72C130.97 182.72 131.466 182.805 131.892 182.976C132.33 183.136 132.692 183.355 132.98 183.632C133.279 183.909 133.503 184.24 133.652 184.624C133.802 185.008 133.876 185.413 133.876 185.84C133.876 186.341 133.791 186.784 133.62 187.168C133.46 187.552 133.242 187.893 132.964 188.192C132.698 188.491 132.388 188.757 132.036 188.992C131.695 189.227 131.343 189.451 130.98 189.664C130.618 189.867 130.26 190.064 129.908 190.256C129.556 190.448 129.242 190.651 128.964 190.864C128.783 191.003 128.607 191.152 128.436 191.312C128.266 191.461 128.111 191.627 127.972 191.808C127.834 191.989 127.722 192.192 127.636 192.416C127.551 192.629 127.503 192.869 127.492 193.136H133.78V194H126.404C126.415 193.456 126.474 192.965 126.58 192.528C126.687 192.091 126.922 191.664 127.284 191.248C127.679 190.8 128.084 190.416 128.5 190.096C128.927 189.776 129.343 189.493 129.748 189.248C130.154 188.992 130.538 188.763 130.9 188.56C131.263 188.347 131.583 188.117 131.86 187.872C132.138 187.627 132.356 187.349 132.516 187.04C132.676 186.731 132.756 186.352 132.756 185.904C132.756 185.541 132.692 185.216 132.564 184.928C132.436 184.64 132.26 184.395 132.036 184.192C131.812 183.989 131.551 183.84 131.252 183.744C130.954 183.637 130.628 183.584 130.276 183.584C129.903 183.584 129.562 183.664 129.252 183.824C128.954 183.973 128.692 184.176 128.468 184.432C128.255 184.688 128.09 184.987 127.972 185.328C127.855 185.669 127.807 186.032 127.828 186.416H126.74ZM139.359 185.616H136.447V184.944C136.874 184.912 137.258 184.869 137.599 184.816C137.951 184.763 138.255 184.661 138.511 184.512C138.778 184.363 138.996 184.149 139.167 183.872C139.348 183.584 139.482 183.2 139.567 182.72H140.383V194H139.359V185.616Z" fill="black"/>
<path d="M182.352 240.416C182.352 239.861 182.438 239.36 182.608 238.912C182.779 238.453 183.024 238.064 183.344 237.744C183.664 237.413 184.048 237.163 184.496 236.992C184.955 236.811 185.462 236.72 186.016 236.72C186.582 236.72 187.078 236.805 187.504 236.976C187.942 237.136 188.304 237.355 188.592 237.632C188.891 237.909 189.115 238.24 189.264 238.624C189.414 239.008 189.488 239.413 189.488 239.84C189.488 240.341 189.403 240.784 189.232 241.168C189.072 241.552 188.854 241.893 188.576 242.192C188.31 242.491 188 242.757 187.648 242.992C187.307 243.227 186.955 243.451 186.592 243.664C186.23 243.867 185.872 244.064 185.52 244.256C185.168 244.448 184.854 244.651 184.576 244.864C184.395 245.003 184.219 245.152 184.048 245.312C183.878 245.461 183.723 245.627 183.584 245.808C183.446 245.989 183.334 246.192 183.248 246.416C183.163 246.629 183.115 246.869 183.104 247.136H189.392V248H182.016C182.027 247.456 182.086 246.965 182.192 246.528C182.299 246.091 182.534 245.664 182.896 245.248C183.291 244.8 183.696 244.416 184.112 244.096C184.539 243.776 184.955 243.493 185.36 243.248C185.766 242.992 186.15 242.763 186.512 242.56C186.875 242.347 187.195 242.117 187.472 241.872C187.75 241.627 187.968 241.349 188.128 241.04C188.288 240.731 188.368 240.352 188.368 239.904C188.368 239.541 188.304 239.216 188.176 238.928C188.048 238.64 187.872 238.395 187.648 238.192C187.424 237.989 187.163 237.84 186.864 237.744C186.566 237.637 186.24 237.584 185.888 237.584C185.515 237.584 185.174 237.664 184.864 237.824C184.566 237.973 184.304 238.176 184.08 238.432C183.867 238.688 183.702 238.987 183.584 239.328C183.467 239.669 183.419 240.032 183.44 240.416H182.352ZM192.027 245.52C192.144 246.128 192.379 246.587 192.731 246.896C193.094 247.205 193.59 247.36 194.219 247.36C194.891 247.36 195.424 247.195 195.819 246.864C196.224 246.533 196.534 246.117 196.747 245.616C196.971 245.115 197.12 244.576 197.195 244C197.28 243.413 197.334 242.864 197.355 242.352L197.323 242.32C196.982 242.896 196.555 243.333 196.043 243.632C195.542 243.931 194.955 244.08 194.283 244.08C193.75 244.08 193.27 243.995 192.843 243.824C192.416 243.653 192.048 243.408 191.739 243.088C191.44 242.768 191.206 242.384 191.035 241.936C190.875 241.488 190.795 240.992 190.795 240.448C190.795 239.915 190.87 239.424 191.019 238.976C191.168 238.517 191.392 238.123 191.691 237.792C191.99 237.451 192.363 237.189 192.811 237.008C193.27 236.816 193.808 236.72 194.427 236.72C195.184 236.72 195.814 236.869 196.315 237.168C196.827 237.467 197.232 237.872 197.531 238.384C197.84 238.896 198.059 239.499 198.187 240.192C198.315 240.885 198.379 241.627 198.379 242.416C198.379 243.376 198.278 244.219 198.075 244.944C197.872 245.659 197.584 246.261 197.211 246.752C196.848 247.243 196.416 247.611 195.915 247.856C195.414 248.101 194.864 248.224 194.267 248.224C193.83 248.224 193.419 248.171 193.035 248.064C192.651 247.957 192.315 247.792 192.027 247.568C191.739 247.344 191.504 247.061 191.323 246.72C191.142 246.379 191.03 245.979 190.987 245.52H192.027ZM194.427 237.584C193.563 237.605 192.912 237.872 192.475 238.384C192.038 238.896 191.819 239.595 191.819 240.48C191.819 241.344 192.043 242.016 192.491 242.496C192.95 242.976 193.595 243.216 194.427 243.216C194.822 243.216 195.174 243.141 195.483 242.992C195.803 242.843 196.07 242.64 196.283 242.384C196.507 242.128 196.672 241.835 196.779 241.504C196.896 241.163 196.955 240.8 196.955 240.416C196.955 239.584 196.731 238.912 196.283 238.4C195.835 237.877 195.216 237.605 194.427 237.584Z" fill="black"/>
<path d="M235.015 241.728C235.495 241.728 235.932 241.701 236.327 241.648C236.721 241.584 237.057 241.472 237.335 241.312C237.623 241.141 237.847 240.917 238.007 240.64C238.167 240.363 238.247 240.005 238.247 239.568C238.247 239.216 238.183 238.917 238.055 238.672C237.927 238.416 237.751 238.208 237.527 238.048C237.313 237.888 237.057 237.771 236.759 237.696C236.471 237.621 236.167 237.584 235.847 237.584C235.484 237.584 235.153 237.643 234.855 237.76C234.567 237.877 234.316 238.048 234.103 238.272C233.889 238.485 233.724 238.741 233.607 239.04C233.489 239.328 233.431 239.648 233.431 240H232.407C232.407 239.488 232.492 239.029 232.663 238.624C232.844 238.208 233.121 237.824 233.495 237.472C233.847 237.152 234.241 236.949 234.679 236.864C235.127 236.768 235.585 236.72 236.055 236.72C236.503 236.72 236.919 236.779 237.303 236.896C237.697 237.003 238.039 237.173 238.327 237.408C238.615 237.632 238.844 237.92 239.015 238.272C239.185 238.624 239.271 239.035 239.271 239.504C239.271 240.091 239.137 240.597 238.871 241.024C238.615 241.451 238.215 241.781 237.671 242.016C238.076 242.144 238.407 242.315 238.663 242.528C238.929 242.731 239.137 242.96 239.287 243.216C239.436 243.461 239.537 243.723 239.591 244C239.644 244.277 239.671 244.544 239.671 244.8C239.671 245.269 239.591 245.707 239.431 246.112C239.271 246.517 239.036 246.875 238.727 247.184C238.417 247.493 238.033 247.744 237.575 247.936C237.127 248.117 236.615 248.213 236.039 248.224C235.388 248.224 234.823 248.165 234.343 248.048C233.863 247.931 233.463 247.739 233.143 247.472C232.823 247.195 232.572 246.837 232.391 246.4C232.209 245.952 232.087 245.397 232.023 244.736H233.047C233.047 245.6 233.303 246.256 233.815 246.704C234.337 247.141 235.015 247.36 235.847 247.36C236.252 247.36 236.631 247.291 236.983 247.152C237.335 247.013 237.633 246.827 237.879 246.592C238.135 246.357 238.327 246.085 238.455 245.776C238.593 245.467 238.657 245.147 238.647 244.816C238.625 244.357 238.519 243.979 238.327 243.68C238.135 243.371 237.873 243.131 237.543 242.96C237.223 242.779 236.844 242.661 236.407 242.608C235.969 242.544 235.505 242.528 235.015 242.56V241.728ZM247.601 242.448C247.601 241.84 247.564 241.248 247.489 240.672C247.425 240.085 247.292 239.563 247.089 239.104C246.887 238.645 246.599 238.277 246.225 238C245.863 237.723 245.383 237.584 244.785 237.584C244.22 237.584 243.756 237.728 243.393 238.016C243.041 238.293 242.764 238.667 242.561 239.136C242.359 239.605 242.215 240.139 242.129 240.736C242.055 241.333 242.017 241.941 242.017 242.56C242.017 243.285 242.06 243.947 242.145 244.544C242.241 245.131 242.396 245.632 242.609 246.048C242.823 246.464 243.105 246.789 243.457 247.024C243.82 247.248 244.273 247.36 244.817 247.36C245.425 247.36 245.911 247.211 246.273 246.912C246.647 246.613 246.929 246.229 247.121 245.76C247.313 245.291 247.441 244.763 247.505 244.176C247.569 243.589 247.601 243.013 247.601 242.448ZM244.817 236.72C245.372 236.72 245.852 236.805 246.257 236.976C246.663 237.136 247.004 237.36 247.281 237.648C247.569 237.936 247.799 238.272 247.969 238.656C248.151 239.04 248.289 239.451 248.385 239.888C248.481 240.315 248.545 240.757 248.577 241.216C248.609 241.675 248.625 242.123 248.625 242.56C248.625 243.307 248.572 244.021 248.465 244.704C248.359 245.387 248.161 245.989 247.873 246.512C247.596 247.035 247.212 247.451 246.721 247.76C246.231 248.069 245.596 248.224 244.817 248.224C244.039 248.224 243.399 248.069 242.897 247.76C242.407 247.451 242.017 247.035 241.729 246.512C241.452 245.979 241.26 245.365 241.153 244.672C241.047 243.968 240.993 243.227 240.993 242.448C240.993 241.733 241.041 241.035 241.137 240.352C241.233 239.669 241.415 239.061 241.681 238.528C241.959 237.984 242.348 237.547 242.849 237.216C243.351 236.885 244.007 236.72 244.817 236.72Z" fill="black"/>
<path d="M291.645 241.728C292.125 241.728 292.563 241.701 292.957 241.648C293.352 241.584 293.688 241.472 293.965 241.312C294.253 241.141 294.477 240.917 294.637 240.64C294.797 240.363 294.877 240.005 294.877 239.568C294.877 239.216 294.813 238.917 294.685 238.672C294.557 238.416 294.381 238.208 294.157 238.048C293.944 237.888 293.688 237.771 293.389 237.696C293.101 237.621 292.797 237.584 292.477 237.584C292.115 237.584 291.784 237.643 291.485 237.76C291.197 237.877 290.947 238.048 290.733 238.272C290.52 238.485 290.355 238.741 290.237 239.04C290.12 239.328 290.061 239.648 290.061 240H289.037C289.037 239.488 289.123 239.029 289.293 238.624C289.475 238.208 289.752 237.824 290.125 237.472C290.477 237.152 290.872 236.949 291.309 236.864C291.757 236.768 292.216 236.72 292.685 236.72C293.133 236.72 293.549 236.779 293.933 236.896C294.328 237.003 294.669 237.173 294.957 237.408C295.245 237.632 295.475 237.92 295.645 238.272C295.816 238.624 295.901 239.035 295.901 239.504C295.901 240.091 295.768 240.597 295.501 241.024C295.245 241.451 294.845 241.781 294.301 242.016C294.707 242.144 295.037 242.315 295.293 242.528C295.56 242.731 295.768 242.96 295.917 243.216C296.067 243.461 296.168 243.723 296.221 244C296.275 244.277 296.301 244.544 296.301 244.8C296.301 245.269 296.221 245.707 296.061 246.112C295.901 246.517 295.667 246.875 295.357 247.184C295.048 247.493 294.664 247.744 294.205 247.936C293.757 248.117 293.245 248.213 292.669 248.224C292.019 248.224 291.453 248.165 290.973 248.048C290.493 247.931 290.093 247.739 289.773 247.472C289.453 247.195 289.203 246.837 289.021 246.4C288.84 245.952 288.717 245.397 288.653 244.736H289.677C289.677 245.6 289.933 246.256 290.445 246.704C290.968 247.141 291.645 247.36 292.477 247.36C292.883 247.36 293.261 247.291 293.613 247.152C293.965 247.013 294.264 246.827 294.509 246.592C294.765 246.357 294.957 246.085 295.085 245.776C295.224 245.467 295.288 245.147 295.277 244.816C295.256 244.357 295.149 243.979 294.957 243.68C294.765 243.371 294.504 243.131 294.173 242.96C293.853 242.779 293.475 242.661 293.037 242.608C292.6 242.544 292.136 242.528 291.645 242.56V241.728ZM301.832 239.616H298.92V238.944C299.347 238.912 299.731 238.869 300.072 238.816C300.424 238.763 300.728 238.661 300.984 238.512C301.251 238.363 301.469 238.149 301.64 237.872C301.821 237.584 301.955 237.2 302.04 236.72H302.856V248H301.832V239.616Z" fill="black"/>
<path d="M232.583 186.416C232.583 185.861 232.668 185.36 232.839 184.912C233.009 184.453 233.255 184.064 233.575 183.744C233.895 183.413 234.279 183.163 234.727 182.992C235.185 182.811 235.692 182.72 236.247 182.72C236.812 182.72 237.308 182.805 237.735 182.976C238.172 183.136 238.535 183.355 238.823 183.632C239.121 183.909 239.345 184.24 239.495 184.624C239.644 185.008 239.719 185.413 239.719 185.84C239.719 186.341 239.633 186.784 239.463 187.168C239.303 187.552 239.084 187.893 238.807 188.192C238.54 188.491 238.231 188.757 237.879 188.992C237.537 189.227 237.185 189.451 236.823 189.664C236.46 189.867 236.103 190.064 235.751 190.256C235.399 190.448 235.084 190.651 234.807 190.864C234.625 191.003 234.449 191.152 234.279 191.312C234.108 191.461 233.953 191.627 233.815 191.808C233.676 191.989 233.564 192.192 233.479 192.416C233.393 192.629 233.345 192.869 233.335 193.136H239.623V194H232.247C232.257 193.456 232.316 192.965 232.423 192.528C232.529 192.091 232.764 191.664 233.127 191.248C233.521 190.8 233.927 190.416 234.343 190.096C234.769 189.776 235.185 189.493 235.591 189.248C235.996 188.992 236.38 188.763 236.743 188.56C237.105 188.347 237.425 188.117 237.703 187.872C237.98 187.627 238.199 187.349 238.359 187.04C238.519 186.731 238.599 186.352 238.599 185.904C238.599 185.541 238.535 185.216 238.407 184.928C238.279 184.64 238.103 184.395 237.879 184.192C237.655 183.989 237.393 183.84 237.095 183.744C236.796 183.637 236.471 183.584 236.119 183.584C235.745 183.584 235.404 183.664 235.095 183.824C234.796 183.973 234.535 184.176 234.311 184.432C234.097 184.688 233.932 184.987 233.815 185.328C233.697 185.669 233.649 186.032 233.671 186.416H232.583ZM243.905 187.728C244.385 187.728 244.823 187.701 245.217 187.648C245.612 187.584 245.948 187.472 246.225 187.312C246.513 187.141 246.737 186.917 246.897 186.64C247.057 186.363 247.137 186.005 247.137 185.568C247.137 185.216 247.073 184.917 246.945 184.672C246.817 184.416 246.641 184.208 246.417 184.048C246.204 183.888 245.948 183.771 245.649 183.696C245.361 183.621 245.057 183.584 244.737 183.584C244.375 183.584 244.044 183.643 243.745 183.76C243.457 183.877 243.207 184.048 242.993 184.272C242.78 184.485 242.615 184.741 242.497 185.04C242.38 185.328 242.321 185.648 242.321 186H241.297C241.297 185.488 241.383 185.029 241.553 184.624C241.735 184.208 242.012 183.824 242.385 183.472C242.737 183.152 243.132 182.949 243.569 182.864C244.017 182.768 244.476 182.72 244.945 182.72C245.393 182.72 245.809 182.779 246.193 182.896C246.588 183.003 246.929 183.173 247.217 183.408C247.505 183.632 247.735 183.92 247.905 184.272C248.076 184.624 248.161 185.035 248.161 185.504C248.161 186.091 248.028 186.597 247.761 187.024C247.505 187.451 247.105 187.781 246.561 188.016C246.967 188.144 247.297 188.315 247.553 188.528C247.82 188.731 248.028 188.96 248.177 189.216C248.327 189.461 248.428 189.723 248.481 190C248.535 190.277 248.561 190.544 248.561 190.8C248.561 191.269 248.481 191.707 248.321 192.112C248.161 192.517 247.927 192.875 247.617 193.184C247.308 193.493 246.924 193.744 246.465 193.936C246.017 194.117 245.505 194.213 244.929 194.224C244.279 194.224 243.713 194.165 243.233 194.048C242.753 193.931 242.353 193.739 242.033 193.472C241.713 193.195 241.463 192.837 241.281 192.4C241.1 191.952 240.977 191.397 240.913 190.736H241.937C241.937 191.6 242.193 192.256 242.705 192.704C243.228 193.141 243.905 193.36 244.737 193.36C245.143 193.36 245.521 193.291 245.873 193.152C246.225 193.013 246.524 192.827 246.769 192.592C247.025 192.357 247.217 192.085 247.345 191.776C247.484 191.467 247.548 191.147 247.537 190.816C247.516 190.357 247.409 189.979 247.217 189.68C247.025 189.371 246.764 189.131 246.433 188.96C246.113 188.779 245.735 188.661 245.297 188.608C244.86 188.544 244.396 188.528 243.905 188.56V187.728Z" fill="black"/>
<path d="M182.352 186.416C182.352 185.861 182.438 185.36 182.608 184.912C182.779 184.453 183.024 184.064 183.344 183.744C183.664 183.413 184.048 183.163 184.496 182.992C184.955 182.811 185.462 182.72 186.016 182.72C186.582 182.72 187.078 182.805 187.504 182.976C187.942 183.136 188.304 183.355 188.592 183.632C188.891 183.909 189.115 184.24 189.264 184.624C189.414 185.008 189.488 185.413 189.488 185.84C189.488 186.341 189.403 186.784 189.232 187.168C189.072 187.552 188.854 187.893 188.576 188.192C188.31 188.491 188 188.757 187.648 188.992C187.307 189.227 186.955 189.451 186.592 189.664C186.23 189.867 185.872 190.064 185.52 190.256C185.168 190.448 184.854 190.651 184.576 190.864C184.395 191.003 184.219 191.152 184.048 191.312C183.878 191.461 183.723 191.627 183.584 191.808C183.446 191.989 183.334 192.192 183.248 192.416C183.163 192.629 183.115 192.869 183.104 193.136H189.392V194H182.016C182.027 193.456 182.086 192.965 182.192 192.528C182.299 192.091 182.534 191.664 182.896 191.248C183.291 190.8 183.696 190.416 184.112 190.096C184.539 189.776 184.955 189.493 185.36 189.248C185.766 188.992 186.15 188.763 186.512 188.56C186.875 188.347 187.195 188.117 187.472 187.872C187.75 187.627 187.968 187.349 188.128 187.04C188.288 186.731 188.368 186.352 188.368 185.904C188.368 185.541 188.304 185.216 188.176 184.928C188.048 184.64 187.872 184.395 187.648 184.192C187.424 183.989 187.163 183.84 186.864 183.744C186.566 183.637 186.24 183.584 185.888 183.584C185.515 183.584 185.174 183.664 184.864 183.824C184.566 183.973 184.304 184.176 184.08 184.432C183.867 184.688 183.702 184.987 183.584 185.328C183.467 185.669 183.419 186.032 183.44 186.416H182.352ZM191.243 186.416C191.243 185.861 191.328 185.36 191.499 184.912C191.67 184.453 191.915 184.064 192.235 183.744C192.555 183.413 192.939 183.163 193.387 182.992C193.846 182.811 194.352 182.72 194.907 182.72C195.472 182.72 195.968 182.805 196.395 182.976C196.832 183.136 197.195 183.355 197.483 183.632C197.782 183.909 198.006 184.24 198.155 184.624C198.304 185.008 198.379 185.413 198.379 185.84C198.379 186.341 198.294 186.784 198.123 187.168C197.963 187.552 197.744 187.893 197.467 188.192C197.2 188.491 196.891 188.757 196.539 188.992C196.198 189.227 195.846 189.451 195.483 189.664C195.12 189.867 194.763 190.064 194.411 190.256C194.059 190.448 193.744 190.651 193.467 190.864C193.286 191.003 193.11 191.152 192.939 191.312C192.768 191.461 192.614 191.627 192.475 191.808C192.336 191.989 192.224 192.192 192.139 192.416C192.054 192.629 192.006 192.869 191.995 193.136H198.283V194H190.907C190.918 193.456 190.976 192.965 191.083 192.528C191.19 192.091 191.424 191.664 191.787 191.248C192.182 190.8 192.587 190.416 193.003 190.096C193.43 189.776 193.846 189.493 194.251 189.248C194.656 188.992 195.04 188.763 195.403 188.56C195.766 188.347 196.086 188.117 196.363 187.872C196.64 187.627 196.859 187.349 197.019 187.04C197.179 186.731 197.259 186.352 197.259 185.904C197.259 185.541 197.195 185.216 197.067 184.928C196.939 184.64 196.763 184.395 196.539 184.192C196.315 183.989 196.054 183.84 195.755 183.744C195.456 183.637 195.131 183.584 194.779 183.584C194.406 183.584 194.064 183.664 193.755 183.824C193.456 183.973 193.195 184.176 192.971 184.432C192.758 184.688 192.592 184.987 192.475 185.328C192.358 185.669 192.31 186.032 192.331 186.416H191.243Z" fill="black"/>
<path d="M130.468 132.483H127.556V131.811C127.983 131.779 128.367 131.736 128.708 131.683C129.06 131.629 129.364 131.528 129.62 131.379C129.887 131.229 130.106 131.016 130.276 130.739C130.458 130.451 130.591 130.067 130.676 129.587H131.492V140.867H130.468V132.483ZM140.255 138.083H135.103V137.203L140.351 129.699H141.279V137.219H142.847V138.083H141.279V140.867H140.255V138.083ZM136.111 137.219H140.255V131.235L136.111 137.219Z" fill="black"/>
<path d="M186.08 132.483H183.168V131.811C183.595 131.779 183.979 131.736 184.32 131.683C184.672 131.629 184.976 131.528 185.232 131.379C185.499 131.229 185.718 131.016 185.888 130.739C186.07 130.451 186.203 130.067 186.288 129.587H187.104V140.867H186.08V132.483ZM191.723 137.939C191.83 138.707 192.134 139.283 192.635 139.667C193.147 140.04 193.771 140.227 194.507 140.227C194.923 140.227 195.296 140.152 195.627 140.003C195.968 139.853 196.256 139.651 196.491 139.395C196.726 139.128 196.902 138.824 197.019 138.483C197.147 138.131 197.211 137.752 197.211 137.347C197.211 136.931 197.142 136.547 197.003 136.195C196.875 135.843 196.688 135.539 196.443 135.283C196.208 135.027 195.915 134.829 195.563 134.691C195.222 134.552 194.838 134.483 194.411 134.483C193.899 134.483 193.44 134.579 193.035 134.771C192.63 134.952 192.272 135.245 191.963 135.651L191.115 135.539L192.027 129.699H197.627V130.563H192.891L192.187 134.355C192.411 134.216 192.614 134.099 192.795 134.003C192.987 133.907 193.179 133.832 193.371 133.779C193.563 133.715 193.76 133.672 193.963 133.651C194.176 133.629 194.411 133.619 194.667 133.619C195.179 133.619 195.654 133.704 196.091 133.875C196.528 134.045 196.907 134.291 197.227 134.611C197.547 134.931 197.792 135.325 197.963 135.795C198.144 136.253 198.235 136.771 198.235 137.347C198.235 137.944 198.134 138.477 197.931 138.947C197.739 139.405 197.478 139.795 197.147 140.115C196.816 140.435 196.432 140.68 195.995 140.851C195.568 141.011 195.126 141.091 194.667 141.091C194.134 141.091 193.632 141.037 193.163 140.931C192.704 140.824 192.299 140.648 191.947 140.403C191.595 140.147 191.307 139.821 191.083 139.427C190.87 139.021 190.742 138.525 190.699 137.939H191.723Z" fill="black"/>
<path d="M236.311 132.483H233.399V131.811C233.825 131.779 234.209 131.736 234.551 131.683C234.903 131.629 235.207 131.528 235.463 131.379C235.729 131.229 235.948 131.016 236.119 130.739C236.3 130.451 236.433 130.067 236.519 129.587H237.335V140.867H236.311V132.483ZM247.361 132.355C247.244 131.779 247.009 131.32 246.657 130.979C246.305 130.627 245.825 130.451 245.217 130.451C244.524 130.451 243.975 130.616 243.569 130.947C243.175 131.277 242.871 131.699 242.657 132.211C242.444 132.712 242.3 133.261 242.225 133.859C242.151 134.456 242.092 135.021 242.049 135.555C242.209 135.341 242.375 135.128 242.545 134.915C242.727 134.701 242.929 134.515 243.153 134.355C243.377 134.184 243.639 134.051 243.937 133.955C244.236 133.848 244.593 133.795 245.009 133.795C246.151 133.795 247.031 134.12 247.649 134.771C248.279 135.411 248.593 136.296 248.593 137.427C248.593 138.568 248.279 139.464 247.649 140.115C247.02 140.765 246.129 141.091 244.977 141.091C244.412 141.091 243.889 141 243.409 140.819C242.929 140.627 242.513 140.317 242.161 139.891C241.809 139.464 241.532 138.909 241.329 138.227C241.127 137.533 241.025 136.691 241.025 135.699C241.025 135.027 241.084 134.333 241.201 133.619C241.319 132.893 241.527 132.232 241.825 131.635C242.135 131.037 242.551 130.547 243.073 130.163C243.607 129.779 244.289 129.587 245.121 129.587C246.017 129.587 246.764 129.821 247.361 130.291C247.959 130.76 248.311 131.448 248.417 132.355H247.361ZM244.977 134.659C244.583 134.659 244.225 134.733 243.905 134.883C243.596 135.032 243.329 135.235 243.105 135.491C242.892 135.747 242.727 136.045 242.609 136.387C242.492 136.717 242.433 137.075 242.433 137.459C242.433 137.779 242.476 138.104 242.561 138.435C242.657 138.755 242.807 139.048 243.009 139.315C243.223 139.581 243.489 139.8 243.809 139.971C244.129 140.141 244.524 140.227 244.993 140.227C245.473 140.227 245.873 140.147 246.193 139.987C246.524 139.816 246.791 139.597 246.993 139.331C247.196 139.053 247.34 138.749 247.425 138.419C247.521 138.077 247.569 137.736 247.569 137.395C247.569 136.52 247.356 135.848 246.929 135.379C246.513 134.899 245.863 134.659 244.977 134.659Z" fill="black"/>
<path d="M289.213 186.416C289.213 185.861 289.299 185.36 289.469 184.912C289.64 184.453 289.885 184.064 290.205 183.744C290.525 183.413 290.909 183.163 291.357 182.992C291.816 182.811 292.323 182.72 292.877 182.72C293.443 182.72 293.939 182.805 294.365 182.976C294.803 183.136 295.165 183.355 295.453 183.632C295.752 183.909 295.976 184.24 296.125 184.624C296.275 185.008 296.349 185.413 296.349 185.84C296.349 186.341 296.264 186.784 296.093 187.168C295.933 187.552 295.715 187.893 295.437 188.192C295.171 188.491 294.861 188.757 294.509 188.992C294.168 189.227 293.816 189.451 293.453 189.664C293.091 189.867 292.733 190.064 292.381 190.256C292.029 190.448 291.715 190.651 291.437 190.864C291.256 191.003 291.08 191.152 290.909 191.312C290.739 191.461 290.584 191.627 290.445 191.808C290.307 191.989 290.195 192.192 290.109 192.416C290.024 192.629 289.976 192.869 289.965 193.136H296.253V194H288.877C288.888 193.456 288.947 192.965 289.053 192.528C289.16 192.091 289.395 191.664 289.757 191.248C290.152 190.8 290.557 190.416 290.973 190.096C291.4 189.776 291.816 189.493 292.221 189.248C292.627 188.992 293.011 188.763 293.373 188.56C293.736 188.347 294.056 188.117 294.333 187.872C294.611 187.627 294.829 187.349 294.989 187.04C295.149 186.731 295.229 186.352 295.229 185.904C295.229 185.541 295.165 185.216 295.037 184.928C294.909 184.64 294.733 184.395 294.509 184.192C294.285 183.989 294.024 183.84 293.725 183.744C293.427 183.637 293.101 183.584 292.749 183.584C292.376 183.584 292.035 183.664 291.725 183.824C291.427 183.973 291.165 184.176 290.941 184.432C290.728 184.688 290.563 184.987 290.445 185.328C290.328 185.669 290.28 186.032 290.301 186.416H289.213ZM302.728 191.216H297.576V190.336L302.824 182.832H303.752V190.352H305.32V191.216H303.752V194H302.728V191.216ZM298.584 190.352H302.728V184.368L298.584 190.352Z" fill="black"/>
<path d="M340.104 186.416C340.104 185.861 340.189 185.36 340.36 184.912C340.531 184.453 340.776 184.064 341.096 183.744C341.416 183.413 341.8 183.163 342.248 182.992C342.707 182.811 343.213 182.72 343.768 182.72C344.333 182.72 344.829 182.805 345.256 182.976C345.693 183.136 346.056 183.355 346.344 183.632C346.643 183.909 346.867 184.24 347.016 184.624C347.165 185.008 347.24 185.413 347.24 185.84C347.24 186.341 347.155 186.784 346.984 187.168C346.824 187.552 346.605 187.893 346.328 188.192C346.061 188.491 345.752 188.757 345.4 188.992C345.059 189.227 344.707 189.451 344.344 189.664C343.981 189.867 343.624 190.064 343.272 190.256C342.92 190.448 342.605 190.651 342.328 190.864C342.147 191.003 341.971 191.152 341.8 191.312C341.629 191.461 341.475 191.627 341.336 191.808C341.197 191.989 341.085 192.192 341 192.416C340.915 192.629 340.867 192.869 340.856 193.136H347.144V194H339.768C339.779 193.456 339.837 192.965 339.944 192.528C340.051 192.091 340.285 191.664 340.648 191.248C341.043 190.8 341.448 190.416 341.864 190.096C342.291 189.776 342.707 189.493 343.112 189.248C343.517 188.992 343.901 188.763 344.264 188.56C344.627 188.347 344.947 188.117 345.224 187.872C345.501 187.627 345.72 187.349 345.88 187.04C346.04 186.731 346.12 186.352 346.12 185.904C346.12 185.541 346.056 185.216 345.928 184.928C345.8 184.64 345.624 184.395 345.4 184.192C345.176 183.989 344.915 183.84 344.616 183.744C344.317 183.637 343.992 183.584 343.64 183.584C343.267 183.584 342.925 183.664 342.616 183.824C342.317 183.973 342.056 184.176 341.832 184.432C341.619 184.688 341.453 184.987 341.336 185.328C341.219 185.669 341.171 186.032 341.192 186.416H340.104ZM349.475 191.072C349.581 191.84 349.885 192.416 350.387 192.8C350.899 193.173 351.523 193.36 352.259 193.36C352.675 193.36 353.048 193.285 353.379 193.136C353.72 192.987 354.008 192.784 354.243 192.528C354.477 192.261 354.653 191.957 354.771 191.616C354.899 191.264 354.963 190.885 354.963 190.48C354.963 190.064 354.893 189.68 354.755 189.328C354.627 188.976 354.44 188.672 354.195 188.416C353.96 188.16 353.667 187.963 353.315 187.824C352.973 187.685 352.589 187.616 352.163 187.616C351.651 187.616 351.192 187.712 350.787 187.904C350.381 188.085 350.024 188.379 349.715 188.784L348.867 188.672L349.779 182.832H355.379V183.696H350.643L349.939 187.488C350.163 187.349 350.365 187.232 350.547 187.136C350.739 187.04 350.931 186.965 351.123 186.912C351.315 186.848 351.512 186.805 351.715 186.784C351.928 186.763 352.163 186.752 352.419 186.752C352.931 186.752 353.405 186.837 353.843 187.008C354.28 187.179 354.659 187.424 354.979 187.744C355.299 188.064 355.544 188.459 355.715 188.928C355.896 189.387 355.987 189.904 355.987 190.48C355.987 191.077 355.885 191.611 355.683 192.08C355.491 192.539 355.229 192.928 354.899 193.248C354.568 193.568 354.184 193.813 353.747 193.984C353.32 194.144 352.877 194.224 352.419 194.224C351.885 194.224 351.384 194.171 350.915 194.064C350.456 193.957 350.051 193.781 349.699 193.536C349.347 193.28 349.059 192.955 348.835 192.56C348.621 192.155 348.493 191.659 348.451 191.072H349.475Z" fill="black"/>
<path d="M292.941 132.616H290.029V131.944C290.456 131.912 290.84 131.869 291.181 131.816C291.533 131.763 291.837 131.661 292.093 131.512C292.36 131.363 292.579 131.149 292.749 130.872C292.931 130.584 293.064 130.2 293.149 129.72H293.965V141H292.941V132.616ZM297.944 129.832H305.128V130.792C304.317 131.709 303.629 132.653 303.064 133.624C302.499 134.584 302.035 135.523 301.672 136.44C301.309 137.347 301.037 138.195 300.856 138.984C300.685 139.773 300.584 140.445 300.552 141H299.432C299.485 140.189 299.645 139.331 299.912 138.424C300.189 137.507 300.531 136.6 300.936 135.704C301.341 134.808 301.8 133.944 302.312 133.112C302.824 132.269 303.352 131.517 303.896 130.856H297.944V129.832Z" fill="black"/>
<path d="M343.832 132.483H340.92V131.811C341.347 131.779 341.731 131.736 342.072 131.683C342.424 131.629 342.728 131.528 342.984 131.379C343.251 131.229 343.469 131.016 343.64 130.739C343.821 130.451 343.955 130.067 344.04 129.587H344.856V140.867H343.832V132.483ZM352.355 135.347C351.96 135.347 351.597 135.395 351.267 135.491C350.936 135.587 350.648 135.736 350.403 135.939C350.157 136.131 349.965 136.381 349.827 136.691C349.688 136.989 349.619 137.347 349.619 137.763C349.619 138.115 349.683 138.44 349.811 138.739C349.949 139.037 350.136 139.299 350.371 139.523C350.616 139.736 350.909 139.907 351.251 140.035C351.603 140.163 351.992 140.227 352.419 140.227C352.792 140.227 353.139 140.168 353.459 140.051C353.779 139.923 354.056 139.747 354.291 139.523C354.536 139.299 354.723 139.032 354.851 138.723C354.989 138.413 355.059 138.072 355.059 137.699C355.059 137.304 354.989 136.963 354.851 136.675C354.712 136.376 354.52 136.131 354.275 135.939C354.029 135.736 353.741 135.587 353.411 135.491C353.08 135.395 352.728 135.347 352.355 135.347ZM352.307 130.451C351.987 130.451 351.688 130.493 351.411 130.579C351.133 130.664 350.888 130.792 350.675 130.963C350.472 131.133 350.312 131.347 350.195 131.603C350.077 131.859 350.019 132.152 350.019 132.483C350.019 132.835 350.083 133.139 350.211 133.395C350.349 133.64 350.531 133.843 350.755 134.003C350.979 134.163 351.235 134.285 351.523 134.371C351.811 134.445 352.109 134.483 352.419 134.483C352.728 134.483 353.016 134.445 353.283 134.371C353.549 134.285 353.779 134.152 353.971 133.971C354.163 133.789 354.312 133.56 354.419 133.283C354.536 133.005 354.595 132.664 354.595 132.259C354.595 131.683 354.408 131.24 354.035 130.931C353.661 130.611 353.085 130.451 352.307 130.451ZM350.563 134.803C350.285 134.632 350.045 134.472 349.843 134.323C349.651 134.163 349.491 133.992 349.363 133.811C349.235 133.629 349.139 133.427 349.075 133.203C349.021 132.968 348.995 132.68 348.995 132.339C348.995 131.955 349.08 131.592 349.251 131.251C349.421 130.909 349.651 130.616 349.939 130.371C350.227 130.115 350.563 129.917 350.947 129.779C351.341 129.64 351.763 129.576 352.211 129.587C352.637 129.587 353.053 129.64 353.459 129.747C353.875 129.853 354.243 130.019 354.563 130.243C354.883 130.467 355.139 130.755 355.331 131.107C355.523 131.448 355.619 131.859 355.619 132.339C355.619 132.925 355.496 133.427 355.251 133.843C355.016 134.259 354.627 134.6 354.083 134.867C354.701 135.091 355.187 135.448 355.539 135.939C355.901 136.429 356.083 137.005 356.083 137.667C356.083 138.221 355.987 138.712 355.795 139.139C355.613 139.565 355.347 139.923 354.995 140.211C354.653 140.499 354.237 140.717 353.747 140.867C353.256 141.016 352.712 141.091 352.115 141.091C351.709 141.091 351.293 141.021 350.867 140.883C350.451 140.744 350.072 140.536 349.731 140.259C349.4 139.981 349.128 139.635 348.915 139.219C348.701 138.803 348.595 138.317 348.595 137.763C348.595 137.091 348.76 136.493 349.091 135.971C349.432 135.437 349.923 135.048 350.563 134.803Z" fill="black"/>
<path d="M22.832 185.616H19.92V184.944C20.3467 184.912 20.7307 184.869 21.072 184.816C21.424 184.763 21.728 184.661 21.984 184.512C22.2507 184.363 22.4693 184.149 22.64 183.872C22.8213 183.584 22.9547 183.2 23.04 182.72H23.856V194H22.832V185.616ZM28.7786 191.52C28.896 192.128 29.1306 192.587 29.4826 192.896C29.8453 193.205 30.3413 193.36 30.9706 193.36C31.6426 193.36 32.176 193.195 32.5706 192.864C32.976 192.533 33.2853 192.117 33.4986 191.616C33.7226 191.115 33.872 190.576 33.9466 190C34.032 189.413 34.0853 188.864 34.1066 188.352L34.0746 188.32C33.7333 188.896 33.3066 189.333 32.7946 189.632C32.2933 189.931 31.7066 190.08 31.0346 190.08C30.5013 190.08 30.0213 189.995 29.5946 189.824C29.168 189.653 28.8 189.408 28.4906 189.088C28.192 188.768 27.9573 188.384 27.7866 187.936C27.6266 187.488 27.5466 186.992 27.5466 186.448C27.5466 185.915 27.6213 185.424 27.7706 184.976C27.92 184.517 28.144 184.123 28.4426 183.792C28.7413 183.451 29.1146 183.189 29.5626 183.008C30.0213 182.816 30.56 182.72 31.1786 182.72C31.936 182.72 32.5653 182.869 33.0666 183.168C33.5786 183.467 33.984 183.872 34.2826 184.384C34.592 184.896 34.8106 185.499 34.9386 186.192C35.0666 186.885 35.1306 187.627 35.1306 188.416C35.1306 189.376 35.0293 190.219 34.8266 190.944C34.624 191.659 34.336 192.261 33.9626 192.752C33.6 193.243 33.168 193.611 32.6666 193.856C32.1653 194.101 31.616 194.224 31.0186 194.224C30.5813 194.224 30.1706 194.171 29.7866 194.064C29.4026 193.957 29.0666 193.792 28.7786 193.568C28.4906 193.344 28.256 193.061 28.0746 192.72C27.8933 192.379 27.7813 191.979 27.7386 191.52H28.7786ZM31.1786 183.584C30.3146 183.605 29.664 183.872 29.2266 184.384C28.7893 184.896 28.5706 185.595 28.5706 186.48C28.5706 187.344 28.7946 188.016 29.2426 188.496C29.7013 188.976 30.3466 189.216 31.1786 189.216C31.5733 189.216 31.9253 189.141 32.2346 188.992C32.5546 188.843 32.8213 188.64 33.0346 188.384C33.2586 188.128 33.424 187.835 33.5306 187.504C33.648 187.163 33.7066 186.8 33.7066 186.416C33.7066 185.584 33.4826 184.912 33.0346 184.4C32.5866 183.877 31.968 183.605 31.1786 183.584Z" fill="black"/>
<path d="M72.9222 240.416C72.9222 239.861 73.0075 239.36 73.1782 238.912C73.3488 238.453 73.5942 238.064 73.9142 237.744C74.2342 237.413 74.6182 237.163 75.0662 236.992C75.5248 236.811 76.0315 236.72 76.5862 236.72C77.1515 236.72 77.6475 236.805 78.0742 236.976C78.5115 237.136 78.8742 237.355 79.1622 237.632C79.4608 237.909 79.6848 238.24 79.8342 238.624C79.9835 239.008 80.0582 239.413 80.0582 239.84C80.0582 240.341 79.9728 240.784 79.8022 241.168C79.6422 241.552 79.4235 241.893 79.1462 242.192C78.8795 242.491 78.5702 242.757 78.2182 242.992C77.8768 243.227 77.5248 243.451 77.1622 243.664C76.7995 243.867 76.4422 244.064 76.0902 244.256C75.7382 244.448 75.4235 244.651 75.1462 244.864C74.9648 245.003 74.7888 245.152 74.6182 245.312C74.4475 245.461 74.2928 245.627 74.1542 245.808C74.0155 245.989 73.9035 246.192 73.8182 246.416C73.7328 246.629 73.6848 246.869 73.6742 247.136H79.9622V248H72.5862C72.5968 247.456 72.6555 246.965 72.7622 246.528C72.8688 246.091 73.1035 245.664 73.4662 245.248C73.8608 244.8 74.2662 244.416 74.6822 244.096C75.1088 243.776 75.5248 243.493 75.9302 243.248C76.3355 242.992 76.7195 242.763 77.0822 242.56C77.4448 242.347 77.7648 242.117 78.0422 241.872C78.3195 241.627 78.5382 241.349 78.6982 241.04C78.8582 240.731 78.9382 240.352 78.9382 239.904C78.9382 239.541 78.8742 239.216 78.7462 238.928C78.6182 238.64 78.4422 238.395 78.2182 238.192C77.9942 237.989 77.7328 237.84 77.4342 237.744C77.1355 237.637 76.8102 237.584 76.4582 237.584C76.0848 237.584 75.7435 237.664 75.4342 237.824C75.1355 237.973 74.8742 238.176 74.6502 238.432C74.4368 238.688 74.2715 238.987 74.1542 239.328C74.0368 239.669 73.9888 240.032 74.0102 240.416H72.9222ZM81.6528 236.832H88.8368V237.792C88.0261 238.709 87.3381 239.653 86.7728 240.624C86.2075 241.584 85.7435 242.523 85.3808 243.44C85.0181 244.347 84.7461 245.195 84.5648 245.984C84.3941 246.773 84.2928 247.445 84.2608 248H83.1408C83.1941 247.189 83.3541 246.331 83.6208 245.424C83.8981 244.507 84.2395 243.6 84.6448 242.704C85.0501 241.808 85.5088 240.944 86.0208 240.112C86.5328 239.269 87.0608 238.517 87.6048 237.856H81.6528V236.832Z" fill="black"/>
<path d="M19.104 240.416C19.104 239.861 19.1893 239.36 19.36 238.912C19.5307 238.453 19.776 238.064 20.096 237.744C20.416 237.413 20.8 237.163 21.248 236.992C21.7067 236.811 22.2133 236.72 22.768 236.72C23.3333 236.72 23.8293 236.805 24.256 236.976C24.6933 237.136 25.056 237.355 25.344 237.632C25.6427 237.909 25.8667 238.24 26.016 238.624C26.1653 239.008 26.24 239.413 26.24 239.84C26.24 240.341 26.1547 240.784 25.984 241.168C25.824 241.552 25.6053 241.893 25.328 242.192C25.0613 242.491 24.752 242.757 24.4 242.992C24.0587 243.227 23.7067 243.451 23.344 243.664C22.9813 243.867 22.624 244.064 22.272 244.256C21.92 244.448 21.6053 244.651 21.328 244.864C21.1467 245.003 20.9707 245.152 20.8 245.312C20.6293 245.461 20.4747 245.627 20.336 245.808C20.1973 245.989 20.0853 246.192 20 246.416C19.9147 246.629 19.8667 246.869 19.856 247.136H26.144V248H18.768C18.7787 247.456 18.8373 246.965 18.944 246.528C19.0507 246.091 19.2853 245.664 19.648 245.248C20.0427 244.8 20.448 244.416 20.864 244.096C21.2907 243.776 21.7067 243.493 22.112 243.248C22.5173 242.992 22.9013 242.763 23.264 242.56C23.6267 242.347 23.9467 242.117 24.224 241.872C24.5013 241.627 24.72 241.349 24.88 241.04C25.04 240.731 25.12 240.352 25.12 239.904C25.12 239.541 25.056 239.216 24.928 238.928C24.8 238.64 24.624 238.395 24.4 238.192C24.176 237.989 23.9147 237.84 23.616 237.744C23.3173 237.637 22.992 237.584 22.64 237.584C22.2667 237.584 21.9253 237.664 21.616 237.824C21.3173 237.973 21.056 238.176 20.832 238.432C20.6187 238.688 20.4533 238.987 20.336 239.328C20.2187 239.669 20.1707 240.032 20.192 240.416H19.104ZM33.8826 239.488C33.7653 238.912 33.5306 238.453 33.1786 238.112C32.8266 237.76 32.3466 237.584 31.7386 237.584C31.0453 237.584 30.496 237.749 30.0906 238.08C29.696 238.411 29.392 238.832 29.1786 239.344C28.9653 239.845 28.8213 240.395 28.7466 240.992C28.672 241.589 28.6133 242.155 28.5706 242.688C28.7306 242.475 28.896 242.261 29.0666 242.048C29.248 241.835 29.4506 241.648 29.6746 241.488C29.8986 241.317 30.16 241.184 30.4586 241.088C30.7573 240.981 31.1146 240.928 31.5306 240.928C32.672 240.928 33.552 241.253 34.1706 241.904C34.8 242.544 35.1146 243.429 35.1146 244.56C35.1146 245.701 34.8 246.597 34.1706 247.248C33.5413 247.899 32.6506 248.224 31.4986 248.224C30.9333 248.224 30.4106 248.133 29.9306 247.952C29.4506 247.76 29.0346 247.451 28.6826 247.024C28.3306 246.597 28.0533 246.043 27.8506 245.36C27.648 244.667 27.5466 243.824 27.5466 242.832C27.5466 242.16 27.6053 241.467 27.7226 240.752C27.84 240.027 28.048 239.365 28.3466 238.768C28.656 238.171 29.072 237.68 29.5946 237.296C30.128 236.912 30.8106 236.72 31.6426 236.72C32.5386 236.72 33.2853 236.955 33.8826 237.424C34.48 237.893 34.832 238.581 34.9386 239.488H33.8826ZM31.4986 241.792C31.104 241.792 30.7466 241.867 30.4266 242.016C30.1173 242.165 29.8506 242.368 29.6266 242.624C29.4133 242.88 29.248 243.179 29.1306 243.52C29.0133 243.851 28.9546 244.208 28.9546 244.592C28.9546 244.912 28.9973 245.237 29.0826 245.568C29.1786 245.888 29.328 246.181 29.5306 246.448C29.744 246.715 30.0106 246.933 30.3306 247.104C30.6506 247.275 31.0453 247.36 31.5146 247.36C31.9946 247.36 32.3946 247.28 32.7146 247.12C33.0453 246.949 33.312 246.731 33.5146 246.464C33.7173 246.187 33.8613 245.883 33.9466 245.552C34.0426 245.211 34.0906 244.869 34.0906 244.528C34.0906 243.653 33.8773 242.981 33.4506 242.512C33.0346 242.032 32.384 241.792 31.4986 241.792Z" fill="black"/>
<path d="M126.74 240.416C126.74 239.861 126.826 239.36 126.996 238.912C127.167 238.453 127.412 238.064 127.732 237.744C128.052 237.413 128.436 237.163 128.884 236.992C129.343 236.811 129.85 236.72 130.404 236.72C130.97 236.72 131.466 236.805 131.892 236.976C132.33 237.136 132.692 237.355 132.98 237.632C133.279 237.909 133.503 238.24 133.652 238.624C133.802 239.008 133.876 239.413 133.876 239.84C133.876 240.341 133.791 240.784 133.62 241.168C133.46 241.552 133.242 241.893 132.964 242.192C132.698 242.491 132.388 242.757 132.036 242.992C131.695 243.227 131.343 243.451 130.98 243.664C130.618 243.867 130.26 244.064 129.908 244.256C129.556 244.448 129.242 244.651 128.964 244.864C128.783 245.003 128.607 245.152 128.436 245.312C128.266 245.461 128.111 245.627 127.972 245.808C127.834 245.989 127.722 246.192 127.636 246.416C127.551 246.629 127.503 246.869 127.492 247.136H133.78V248H126.404C126.415 247.456 126.474 246.965 126.58 246.528C126.687 246.091 126.922 245.664 127.284 245.248C127.679 244.8 128.084 244.416 128.5 244.096C128.927 243.776 129.343 243.493 129.748 243.248C130.154 242.992 130.538 242.763 130.9 242.56C131.263 242.347 131.583 242.117 131.86 241.872C132.138 241.627 132.356 241.349 132.516 241.04C132.676 240.731 132.756 240.352 132.756 239.904C132.756 239.541 132.692 239.216 132.564 238.928C132.436 238.64 132.26 238.395 132.036 238.192C131.812 237.989 131.551 237.84 131.252 237.744C130.954 237.637 130.628 237.584 130.276 237.584C129.903 237.584 129.562 237.664 129.252 237.824C128.954 237.973 128.692 238.176 128.468 238.432C128.255 238.688 128.09 238.987 127.972 239.328C127.855 239.669 127.807 240.032 127.828 240.416H126.74ZM138.991 242.48C138.596 242.48 138.234 242.528 137.903 242.624C137.572 242.72 137.284 242.869 137.039 243.072C136.794 243.264 136.602 243.515 136.463 243.824C136.324 244.123 136.255 244.48 136.255 244.896C136.255 245.248 136.319 245.573 136.447 245.872C136.586 246.171 136.772 246.432 137.007 246.656C137.252 246.869 137.546 247.04 137.887 247.168C138.239 247.296 138.628 247.36 139.055 247.36C139.428 247.36 139.775 247.301 140.095 247.184C140.415 247.056 140.692 246.88 140.927 246.656C141.172 246.432 141.359 246.165 141.487 245.856C141.626 245.547 141.695 245.205 141.695 244.832C141.695 244.437 141.626 244.096 141.487 243.808C141.348 243.509 141.156 243.264 140.911 243.072C140.666 242.869 140.378 242.72 140.047 242.624C139.716 242.528 139.364 242.48 138.991 242.48ZM138.943 237.584C138.623 237.584 138.324 237.627 138.047 237.712C137.77 237.797 137.524 237.925 137.311 238.096C137.108 238.267 136.948 238.48 136.831 238.736C136.714 238.992 136.655 239.285 136.655 239.616C136.655 239.968 136.719 240.272 136.847 240.528C136.986 240.773 137.167 240.976 137.391 241.136C137.615 241.296 137.871 241.419 138.159 241.504C138.447 241.579 138.746 241.616 139.055 241.616C139.364 241.616 139.652 241.579 139.919 241.504C140.186 241.419 140.415 241.285 140.607 241.104C140.799 240.923 140.948 240.693 141.055 240.416C141.172 240.139 141.231 239.797 141.231 239.392C141.231 238.816 141.044 238.373 140.671 238.064C140.298 237.744 139.722 237.584 138.943 237.584ZM137.199 241.936C136.922 241.765 136.682 241.605 136.479 241.456C136.287 241.296 136.127 241.125 135.999 240.944C135.871 240.763 135.775 240.56 135.711 240.336C135.658 240.101 135.631 239.813 135.631 239.472C135.631 239.088 135.716 238.725 135.887 238.384C136.058 238.043 136.287 237.749 136.575 237.504C136.863 237.248 137.199 237.051 137.583 236.912C137.978 236.773 138.399 236.709 138.847 236.72C139.274 236.72 139.69 236.773 140.095 236.88C140.511 236.987 140.879 237.152 141.199 237.376C141.519 237.6 141.775 237.888 141.967 238.24C142.159 238.581 142.255 238.992 142.255 239.472C142.255 240.059 142.132 240.56 141.887 240.976C141.652 241.392 141.263 241.733 140.719 242C141.338 242.224 141.823 242.581 142.175 243.072C142.538 243.563 142.719 244.139 142.719 244.8C142.719 245.355 142.623 245.845 142.431 246.272C142.25 246.699 141.983 247.056 141.631 247.344C141.29 247.632 140.874 247.851 140.383 248C139.892 248.149 139.348 248.224 138.751 248.224C138.346 248.224 137.93 248.155 137.503 248.016C137.087 247.877 136.708 247.669 136.367 247.392C136.036 247.115 135.764 246.768 135.551 246.352C135.338 245.936 135.231 245.451 135.231 244.896C135.231 244.224 135.396 243.627 135.727 243.104C136.068 242.571 136.559 242.181 137.199 241.936Z" fill="black"/>
<path d="M72.9222 186.416C72.9222 185.861 73.0075 185.36 73.1782 184.912C73.3488 184.453 73.5942 184.064 73.9142 183.744C74.2342 183.413 74.6182 183.163 75.0662 182.992C75.5248 182.811 76.0315 182.72 76.5862 182.72C77.1515 182.72 77.6475 182.805 78.0742 182.976C78.5115 183.136 78.8742 183.355 79.1622 183.632C79.4608 183.909 79.6848 184.24 79.8342 184.624C79.9835 185.008 80.0582 185.413 80.0582 185.84C80.0582 186.341 79.9728 186.784 79.8022 187.168C79.6422 187.552 79.4235 187.893 79.1462 188.192C78.8795 188.491 78.5702 188.757 78.2182 188.992C77.8768 189.227 77.5248 189.451 77.1622 189.664C76.7995 189.867 76.4422 190.064 76.0902 190.256C75.7382 190.448 75.4235 190.651 75.1462 190.864C74.9648 191.003 74.7888 191.152 74.6182 191.312C74.4475 191.461 74.2928 191.627 74.1542 191.808C74.0155 191.989 73.9035 192.192 73.8182 192.416C73.7328 192.629 73.6848 192.869 73.6742 193.136H79.9622V194H72.5862C72.5968 193.456 72.6555 192.965 72.7622 192.528C72.8688 192.091 73.1035 191.664 73.4662 191.248C73.8608 190.8 74.2662 190.416 74.6822 190.096C75.1088 189.776 75.5248 189.493 75.9302 189.248C76.3355 188.992 76.7195 188.763 77.0822 188.56C77.4448 188.347 77.7648 188.117 78.0422 187.872C78.3195 187.627 78.5382 187.349 78.6982 187.04C78.8582 186.731 78.9382 186.352 78.9382 185.904C78.9382 185.541 78.8742 185.216 78.7462 184.928C78.6182 184.64 78.4422 184.395 78.2182 184.192C77.9942 183.989 77.7328 183.84 77.4342 183.744C77.1355 183.637 76.8102 183.584 76.4582 183.584C76.0848 183.584 75.7435 183.664 75.4342 183.824C75.1355 183.973 74.8742 184.176 74.6502 184.432C74.4368 184.688 74.2715 184.987 74.1542 185.328C74.0368 185.669 73.9888 186.032 74.0102 186.416H72.9222ZM87.9408 188.448C87.9408 187.84 87.9035 187.248 87.8288 186.672C87.7648 186.085 87.6315 185.563 87.4288 185.104C87.2261 184.645 86.9381 184.277 86.5648 184C86.2021 183.723 85.7221 183.584 85.1248 183.584C84.5595 183.584 84.0955 183.728 83.7328 184.016C83.3808 184.293 83.1035 184.667 82.9008 185.136C82.6981 185.605 82.5541 186.139 82.4688 186.736C82.3941 187.333 82.3568 187.941 82.3568 188.56C82.3568 189.285 82.3995 189.947 82.4848 190.544C82.5808 191.131 82.7355 191.632 82.9488 192.048C83.1621 192.464 83.4448 192.789 83.7968 193.024C84.1595 193.248 84.6128 193.36 85.1568 193.36C85.7648 193.36 86.2501 193.211 86.6128 192.912C86.9861 192.613 87.2688 192.229 87.4608 191.76C87.6528 191.291 87.7808 190.763 87.8448 190.176C87.9088 189.589 87.9408 189.013 87.9408 188.448ZM85.1568 182.72C85.7115 182.72 86.1915 182.805 86.5968 182.976C87.0021 183.136 87.3435 183.36 87.6208 183.648C87.9088 183.936 88.1381 184.272 88.3088 184.656C88.4901 185.04 88.6288 185.451 88.7248 185.888C88.8208 186.315 88.8848 186.757 88.9168 187.216C88.9488 187.675 88.9648 188.123 88.9648 188.56C88.9648 189.307 88.9115 190.021 88.8048 190.704C88.6981 191.387 88.5008 191.989 88.2128 192.512C87.9355 193.035 87.5515 193.451 87.0608 193.76C86.5701 194.069 85.9355 194.224 85.1568 194.224C84.3781 194.224 83.7381 194.069 83.2368 193.76C82.7461 193.451 82.3568 193.035 82.0688 192.512C81.7915 191.979 81.5995 191.365 81.4928 190.672C81.3861 189.968 81.3328 189.227 81.3328 188.448C81.3328 187.733 81.3808 187.035 81.4768 186.352C81.5728 185.669 81.7541 185.061 82.0208 184.528C82.2981 183.984 82.6875 183.547 83.1888 183.216C83.6901 182.885 84.3461 182.72 85.1568 182.72Z" fill="black"/>
<path d="M22.832 132.483H19.92V131.811C20.3467 131.779 20.7307 131.736 21.072 131.683C21.424 131.629 21.728 131.528 21.984 131.379C22.2507 131.229 22.4693 131.016 22.64 130.739C22.8213 130.451 22.9547 130.067 23.04 129.587H23.856V140.867H22.832V132.483ZM27.9946 133.283C27.9946 132.728 28.08 132.227 28.2506 131.779C28.4213 131.32 28.6666 130.931 28.9866 130.611C29.3066 130.28 29.6906 130.029 30.1386 129.859C30.5973 129.677 31.104 129.587 31.6586 129.587C32.224 129.587 32.72 129.672 33.1466 129.843C33.584 130.003 33.9466 130.221 34.2346 130.499C34.5333 130.776 34.7573 131.107 34.9066 131.491C35.056 131.875 35.1306 132.28 35.1306 132.707C35.1306 133.208 35.0453 133.651 34.8746 134.035C34.7146 134.419 34.496 134.76 34.2186 135.059C33.952 135.357 33.6426 135.624 33.2906 135.859C32.9493 136.093 32.5973 136.317 32.2346 136.531C31.872 136.733 31.5146 136.931 31.1626 137.123C30.8106 137.315 30.496 137.517 30.2186 137.731C30.0373 137.869 29.8613 138.019 29.6906 138.179C29.52 138.328 29.3653 138.493 29.2266 138.675C29.088 138.856 28.976 139.059 28.8906 139.283C28.8053 139.496 28.7573 139.736 28.7466 140.003H35.0346V140.867H27.6586C27.6693 140.323 27.728 139.832 27.8346 139.395C27.9413 138.957 28.176 138.531 28.5386 138.115C28.9333 137.667 29.3386 137.283 29.7546 136.963C30.1813 136.643 30.5973 136.36 31.0026 136.115C31.408 135.859 31.792 135.629 32.1546 135.427C32.5173 135.213 32.8373 134.984 33.1146 134.739C33.392 134.493 33.6106 134.216 33.7706 133.907C33.9306 133.597 34.0106 133.219 34.0106 132.771C34.0106 132.408 33.9466 132.083 33.8186 131.795C33.6906 131.507 33.5146 131.261 33.2906 131.059C33.0666 130.856 32.8053 130.707 32.5066 130.611C32.208 130.504 31.8826 130.451 31.5306 130.451C31.1573 130.451 30.816 130.531 30.5066 130.691C30.208 130.84 29.9466 131.043 29.7226 131.299C29.5093 131.555 29.344 131.853 29.2266 132.195C29.1093 132.536 29.0613 132.899 29.0826 133.283H27.9946Z" fill="black"/>
<path d="M348.283 30.216H343.131V29.336L348.379 21.832H349.307V29.352H350.875V30.216H349.307V33H348.283V30.216ZM344.139 29.352H348.283V23.368L344.139 29.352Z" fill="black"/>
<path d="M83.5467 77.488C83.4294 76.912 83.1947 76.4533 82.8427 76.112C82.4907 75.76 82.0107 75.584 81.4027 75.584C80.7094 75.584 80.16 75.7493 79.7547 76.08C79.36 76.4107 79.056 76.832 78.8427 77.344C78.6294 77.8453 78.4854 78.3947 78.4107 78.992C78.336 79.5893 78.2774 80.1547 78.2347 80.688C78.3947 80.4747 78.56 80.2613 78.7307 80.048C78.912 79.8347 79.1147 79.648 79.3387 79.488C79.5627 79.3173 79.824 79.184 80.1227 79.088C80.4214 78.9813 80.7787 78.928 81.1947 78.928C82.336 78.928 83.216 79.2533 83.8347 79.904C84.464 80.544 84.7787 81.4293 84.7787 82.56C84.7787 83.7013 84.464 84.5973 83.8347 85.248C83.2054 85.8987 82.3147 86.224 81.1627 86.224C80.5974 86.224 80.0747 86.1333 79.5947 85.952C79.1147 85.76 78.6987 85.4507 78.3467 85.024C77.9947 84.5973 77.7174 84.0427 77.5147 83.36C77.312 82.6667 77.2107 81.824 77.2107 80.832C77.2107 80.16 77.2694 79.4667 77.3867 78.752C77.504 78.0267 77.712 77.3653 78.0107 76.768C78.32 76.1707 78.736 75.68 79.2587 75.296C79.792 74.912 80.4747 74.72 81.3067 74.72C82.2027 74.72 82.9494 74.9547 83.5467 75.424C84.144 75.8933 84.496 76.5813 84.6027 77.488H83.5467ZM81.1627 79.792C80.768 79.792 80.4107 79.8667 80.0907 80.016C79.7814 80.1653 79.5147 80.368 79.2907 80.624C79.0774 80.88 78.912 81.1787 78.7947 81.52C78.6774 81.8507 78.6187 82.208 78.6187 82.592C78.6187 82.912 78.6614 83.2373 78.7467 83.568C78.8427 83.888 78.992 84.1813 79.1947 84.448C79.408 84.7147 79.6747 84.9333 79.9947 85.104C80.3147 85.2747 80.7094 85.36 81.1787 85.36C81.6587 85.36 82.0587 85.28 82.3787 85.12C82.7094 84.9493 82.976 84.7307 83.1787 84.464C83.3814 84.1867 83.5254 83.8827 83.6107 83.552C83.7067 83.2107 83.7547 82.8693 83.7547 82.528C83.7547 81.6533 83.5414 80.9813 83.1147 80.512C82.6987 80.032 82.048 79.792 81.1627 79.792Z" fill="black"/>
<path d="M135.177 74.8805H142.361V75.8405C141.551 76.7578 140.863 77.7018 140.297 78.6725C139.732 79.6325 139.268 80.5712 138.905 81.4885C138.543 82.3952 138.271 83.2432 138.089 84.0325C137.919 84.8218 137.817 85.4938 137.785 86.0485H136.665C136.719 85.2378 136.879 84.3792 137.145 83.4725C137.423 82.5552 137.764 81.6485 138.169 80.7525C138.575 79.8565 139.033 78.9925 139.545 78.1605C140.057 77.3178 140.585 76.5658 141.129 75.9045H135.177V74.8805Z" fill="black"/>
<path d="M192.516 80.5285C192.121 80.5285 191.758 80.5765 191.428 80.6725C191.097 80.7685 190.809 80.9178 190.564 81.1205C190.318 81.3125 190.126 81.5632 189.988 81.8725C189.849 82.1712 189.78 82.5285 189.78 82.9445C189.78 83.2965 189.844 83.6218 189.972 83.9205C190.11 84.2192 190.297 84.4805 190.532 84.7045C190.777 84.9178 191.07 85.0885 191.412 85.2165C191.764 85.3445 192.153 85.4085 192.58 85.4085C192.953 85.4085 193.3 85.3498 193.62 85.2325C193.94 85.1045 194.217 84.9285 194.452 84.7045C194.697 84.4805 194.884 84.2138 195.012 83.9045C195.15 83.5952 195.22 83.2538 195.22 82.8805C195.22 82.4858 195.15 82.1445 195.012 81.8565C194.873 81.5578 194.681 81.3125 194.436 81.1205C194.19 80.9178 193.902 80.7685 193.572 80.6725C193.241 80.5765 192.889 80.5285 192.516 80.5285ZM192.468 75.6325C192.148 75.6325 191.849 75.6752 191.572 75.7605C191.294 75.8458 191.049 75.9738 190.836 76.1445C190.633 76.3152 190.473 76.5285 190.356 76.7845C190.238 77.0405 190.18 77.3338 190.18 77.6645C190.18 78.0165 190.244 78.3205 190.372 78.5765C190.51 78.8218 190.692 79.0245 190.916 79.1845C191.14 79.3445 191.396 79.4672 191.684 79.5525C191.972 79.6272 192.27 79.6645 192.58 79.6645C192.889 79.6645 193.177 79.6272 193.444 79.5525C193.71 79.4672 193.94 79.3338 194.132 79.1525C194.324 78.9712 194.473 78.7418 194.58 78.4645C194.697 78.1872 194.756 77.8458 194.756 77.4405C194.756 76.8645 194.569 76.4218 194.196 76.1125C193.822 75.7925 193.246 75.6325 192.468 75.6325ZM190.724 79.9845C190.446 79.8138 190.206 79.6538 190.004 79.5045C189.812 79.3445 189.652 79.1738 189.524 78.9925C189.396 78.8112 189.3 78.6085 189.236 78.3845C189.182 78.1498 189.156 77.8618 189.156 77.5205C189.156 77.1365 189.241 76.7738 189.412 76.4325C189.582 76.0912 189.812 75.7978 190.1 75.5525C190.388 75.2965 190.724 75.0992 191.108 74.9605C191.502 74.8218 191.924 74.7578 192.372 74.7685C192.798 74.7685 193.214 74.8218 193.62 74.9285C194.036 75.0352 194.404 75.2005 194.724 75.4245C195.044 75.6485 195.3 75.9365 195.492 76.2885C195.684 76.6298 195.78 77.0405 195.78 77.5205C195.78 78.1072 195.657 78.6085 195.412 79.0245C195.177 79.4405 194.788 79.7818 194.244 80.0485C194.862 80.2725 195.348 80.6298 195.7 81.1205C196.062 81.6112 196.244 82.1872 196.244 82.8485C196.244 83.4032 196.148 83.8938 195.956 84.3205C195.774 84.7472 195.508 85.1045 195.156 85.3925C194.814 85.6805 194.398 85.8992 193.908 86.0485C193.417 86.1978 192.873 86.2725 192.276 86.2725C191.87 86.2725 191.454 86.2032 191.028 86.0645C190.612 85.9258 190.233 85.7178 189.892 85.4405C189.561 85.1632 189.289 84.8165 189.076 84.4005C188.862 83.9845 188.756 83.4992 188.756 82.9445C188.756 82.2725 188.921 81.6752 189.252 81.1525C189.593 80.6192 190.084 80.2298 190.724 79.9845Z" fill="black"/>
<path d="M241.964 83.5685C242.081 84.1765 242.316 84.6352 242.668 84.9445C243.031 85.2538 243.527 85.4085 244.156 85.4085C244.828 85.4085 245.361 85.2432 245.756 84.9125C246.161 84.5818 246.471 84.1658 246.684 83.6645C246.908 83.1632 247.057 82.6245 247.132 82.0485C247.217 81.4618 247.271 80.9125 247.292 80.4005L247.26 80.3685C246.919 80.9445 246.492 81.3818 245.98 81.6805C245.479 81.9792 244.892 82.1285 244.22 82.1285C243.687 82.1285 243.207 82.0432 242.78 81.8725C242.353 81.7018 241.985 81.4565 241.676 81.1365C241.377 80.8165 241.143 80.4325 240.972 79.9845C240.812 79.5365 240.732 79.0405 240.732 78.4965C240.732 77.9632 240.807 77.4725 240.956 77.0245C241.105 76.5658 241.329 76.1712 241.628 75.8405C241.927 75.4992 242.3 75.2378 242.748 75.0565C243.207 74.8645 243.745 74.7685 244.364 74.7685C245.121 74.7685 245.751 74.9178 246.252 75.2165C246.764 75.5152 247.169 75.9205 247.468 76.4325C247.777 76.9445 247.996 77.5472 248.124 78.2405C248.252 78.9338 248.316 79.6752 248.316 80.4645C248.316 81.4245 248.215 82.2672 248.012 82.9925C247.809 83.7072 247.521 84.3098 247.148 84.8005C246.785 85.2912 246.353 85.6592 245.852 85.9045C245.351 86.1498 244.801 86.2725 244.204 86.2725C243.767 86.2725 243.356 86.2192 242.972 86.1125C242.588 86.0058 242.252 85.8405 241.964 85.6165C241.676 85.3925 241.441 85.1098 241.26 84.7685C241.079 84.4272 240.967 84.0272 240.924 83.5685H241.964ZM244.364 75.6325C243.5 75.6538 242.849 75.9205 242.412 76.4325C241.975 76.9445 241.756 77.6432 241.756 78.5285C241.756 79.3925 241.98 80.0645 242.428 80.5445C242.887 81.0245 243.532 81.2645 244.364 81.2645C244.759 81.2645 245.111 81.1898 245.42 81.0405C245.74 80.8912 246.007 80.6885 246.22 80.4325C246.444 80.1765 246.609 79.8832 246.716 79.5525C246.833 79.2112 246.892 78.8485 246.892 78.4645C246.892 77.6325 246.668 76.9605 246.22 76.4485C245.772 75.9258 245.153 75.6538 244.364 75.6325Z" fill="black"/>
<path d="M292.941 77.616H290.029V76.944C290.456 76.912 290.84 76.8693 291.181 76.816C291.533 76.7627 291.837 76.6613 292.093 76.512C292.36 76.3627 292.579 76.1493 292.749 75.872C292.931 75.584 293.064 75.2 293.149 74.72H293.965V86H292.941V77.616ZM304.232 80.448C304.232 79.84 304.195 79.248 304.12 78.672C304.056 78.0853 303.923 77.5627 303.72 77.104C303.517 76.6453 303.229 76.2773 302.856 76C302.493 75.7227 302.013 75.584 301.416 75.584C300.851 75.584 300.387 75.728 300.024 76.016C299.672 76.2933 299.395 76.6667 299.192 77.136C298.989 77.6053 298.845 78.1387 298.76 78.736C298.685 79.3333 298.648 79.9413 298.648 80.56C298.648 81.2853 298.691 81.9467 298.776 82.544C298.872 83.1307 299.027 83.632 299.24 84.048C299.453 84.464 299.736 84.7893 300.088 85.024C300.451 85.248 300.904 85.36 301.448 85.36C302.056 85.36 302.541 85.2107 302.904 84.912C303.277 84.6133 303.56 84.2293 303.752 83.76C303.944 83.2907 304.072 82.7627 304.136 82.176C304.2 81.5893 304.232 81.0133 304.232 80.448ZM301.448 74.72C302.003 74.72 302.483 74.8053 302.888 74.976C303.293 75.136 303.635 75.36 303.912 75.648C304.2 75.936 304.429 76.272 304.6 76.656C304.781 77.04 304.92 77.4507 305.016 77.888C305.112 78.3147 305.176 78.7573 305.208 79.216C305.24 79.6747 305.256 80.1227 305.256 80.56C305.256 81.3067 305.203 82.0213 305.096 82.704C304.989 83.3867 304.792 83.9893 304.504 84.512C304.227 85.0347 303.843 85.4507 303.352 85.76C302.861 86.0693 302.227 86.224 301.448 86.224C300.669 86.224 300.029 86.0693 299.528 85.76C299.037 85.4507 298.648 85.0347 298.36 84.512C298.083 83.9787 297.891 83.3653 297.784 82.672C297.677 81.968 297.624 81.2267 297.624 80.448C297.624 79.7333 297.672 79.0347 297.768 78.352C297.864 77.6693 298.045 77.0613 298.312 76.528C298.589 75.984 298.979 75.5467 299.48 75.216C299.981 74.8853 300.637 74.72 301.448 74.72Z" fill="black"/>
<path d="M343.832 77.6645H340.92V76.9925C341.347 76.9605 341.731 76.9178 342.072 76.8645C342.424 76.8112 342.728 76.7098 342.984 76.5605C343.251 76.4112 343.469 76.1978 343.64 75.9205C343.821 75.6325 343.955 75.2485 344.04 74.7685H344.856V86.0485H343.832V77.6645ZM352.723 77.6645H349.811V76.9925C350.237 76.9605 350.621 76.9178 350.963 76.8645C351.315 76.8112 351.619 76.7098 351.875 76.5605C352.141 76.4112 352.36 76.1978 352.531 75.9205C352.712 75.6325 352.845 75.2485 352.931 74.7685H353.747V86.0485H352.723V77.6645Z" fill="black"/>
</svg>
