<svg width="50" height="64" viewBox="0 0 50 64" fill="none" xmlns="http://www.w3.org/2000/svg">
<path d="M24.9992 15.2741C24.3905 15.2741 23.7818 15.2975 23.1811 15.3365C16.8821 15.785 10.9906 18.5399 6.6904 23.0478C2.39022 27.5556 0 33.4823 0 39.637C0 45.7917 2.39022 51.7184 6.6904 56.2262C10.9906 60.734 16.8821 63.489 23.1811 63.9375C23.7818 63.9765 24.3905 63.9999 24.9992 63.9999C31.6298 63.9999 37.9889 61.4331 42.6774 56.8642C47.366 52.2953 50 46.0985 50 39.637C50 33.1755 47.366 26.9787 42.6774 22.4098C37.9889 17.8409 31.6298 15.2741 24.9992 15.2741ZM24.9992 20.9404C30.0877 20.9404 34.9678 22.9102 38.5658 26.4165C42.1639 29.9228 44.1853 34.6784 44.1853 39.637C44.1853 44.5956 42.1639 49.3512 38.5658 52.8575C34.9678 56.3638 30.0877 58.3336 24.9992 58.3336C24.3825 58.3336 23.7738 58.3024 23.1811 58.2477C18.4296 57.8065 14.0176 55.6552 10.8066 52.2138C7.59562 48.7724 5.81639 44.2882 5.81639 39.637C5.81639 34.9858 7.59562 30.5016 10.8066 27.0602C14.0176 23.6188 18.4296 21.4674 23.1811 21.0263C23.7738 20.9716 24.3825 20.9404 24.9992 20.9404Z" fill="#EAB54E"/>
<path d="M23.1811 15.3367C16.8821 15.7852 10.9906 18.5402 6.6904 23.048C2.39022 27.5558 0 33.4825 0 39.6372C0 45.7919 2.39022 51.7186 6.6904 56.2265C10.9906 60.7343 16.8821 63.4892 23.1811 63.9377C29.4821 63.4918 35.3762 60.738 39.6786 56.2298C43.9809 51.7217 46.3725 45.7936 46.3725 39.6372C46.3725 33.4809 43.9809 27.5527 39.6786 23.0446C35.3762 18.5365 29.4821 15.7826 23.1811 15.3367ZM24.9992 58.3338C24.3825 58.3338 23.7738 58.3026 23.1811 58.248C22.5804 58.3026 21.9797 58.3338 21.363 58.3338C16.2746 58.3338 11.3945 56.364 7.79643 52.8577C4.19834 49.3514 2.17696 44.5959 2.17696 39.6372C2.17696 34.6786 4.19834 29.923 7.79643 26.4167C11.3945 22.9104 16.2746 20.9406 21.363 20.9406C21.9797 20.9406 22.5804 20.9718 23.1811 21.0265C23.7738 20.9718 24.3825 20.9406 24.9992 20.9406C30.0877 20.9406 34.9677 22.9104 38.5658 26.4167C42.1639 29.923 44.1853 34.6786 44.1853 39.6372C44.1853 44.5959 42.1639 49.3514 38.5658 52.8577C34.9677 56.364 30.0877 58.3338 24.9992 58.3338Z" fill="#F6C863"/>
<path d="M25.0066 0L20.0209 6.59591L17.7238 0H25.0066Z" fill="#E1E0E2"/>
<path d="M20.0206 6.59591H12.0883L17.7235 0L20.0206 6.59591Z" fill="#EEEFEE"/>
<path d="M37.91 6.59591H29.9929L32.2739 0L37.91 6.59591Z" fill="#EEEFEE"/>
<path d="M37.91 6.59581L25.0063 20.9818L29.9929 6.59581H37.91Z" fill="#DBD8DD"/>
<path d="M25.0064 20.9818L12.0883 6.59581H20.0206L25.0064 20.9818Z" fill="#DBD8DD"/>
<path d="M32.2739 0L29.9929 6.59591H29.9777L25.0063 0H32.2739Z" fill="#E1E0E2"/>
<path d="M29.9929 6.59581L25.0064 20.9818L20.0206 6.59581H29.9929Z" fill="#EEEFEE"/>
<path d="M29.9777 6.59591H20.0206L25.0064 0L29.9777 6.59591Z" fill="#DBD8DD"/>
</svg>
